<svg xmlns="http://www.w3.org/2000/svg" viewBox="0 0 32 32" fill="black">
    <style>
        @media (prefers-color-scheme: dark) {
            svg { fill: white; }
        }
    </style>
    <path d="M16 0C7.163 0 0 7.163 0 16s7.163 16 16 16 16-7.163 16-16S24.837 0 16 0zm-4.138 23.362l-2.012-2.012 2.012-2.013 2.013 2.013-2.013 2.012zm4.138-4.138l-2.013-2.012 2.013-2.013 2.012 2.013-2.012 2.012zm0-8.275l-2.013-2.013 2.013-2.012 2.012 2.012-2.012 2.013zm4.138 4.138l-2.013-2.013 2.012-2.012 2.013 2.012-2.012 2.013z" />
</svg>
