<svg xmlns="http://www.w3.org/2000/svg" viewBox="0 0 96 86" width="96" height="86"><g clip-path="url(#logo-portrait-color-gradient-clip0_56_1033)"><path fill="#111" d="M95.82 46.78a3.53 3.53 0 0 0-3.09-3.5h.01l-.63-.08a8.3 8.3 0 0 1-4.92-2.46L61.73 14.37v37.56h29.14a4.94 4.94 0 0 0 4.95-4.95zM72.7 43.67h-.17a3.3 3.3 0 1 1 .17 0"/><path fill="url(#logo-portrait-color-gradient-paint0_linear_56_1033)" d="M40.73 4.96v9.19l20.96 21.52.03-.01V14.37L49.4 1.57A5 5 0 0 0 45.69 0a4.96 4.96 0 0 0-4.96 4.96"/><path fill="url(#logo-portrait-color-gradient-paint1_linear_56_1033)" d="M40.73 14.16v20.49l16.82 17.28h4.17V35.7z"/><path fill="url(#logo-portrait-color-gradient-paint2_linear_56_1033)" d="M40.73 51.93h16.82L40.73 34.65z"/><path fill="url(#logo-portrait-color-gradient-paint3_linear_56_1033)" d="M19.92 4.94v8.35l20.8 21.36v-20.5L28.39 1.5a4.93 4.93 0 0 0-8.46 3.45"/><path fill="url(#logo-portrait-color-gradient-paint4_linear_56_1033)" d="M19.92 51.93h16.62L19.92 34.64z"/><path fill="url(#logo-portrait-color-gradient-paint5_linear_56_1033)" d="M19.92 13.29v21.35l16.62 17.3h4.19v-17.3z"/><path fill="url(#logo-portrait-color-gradient-paint6_linear_56_1033)" d="M19.92 13.29 8.42 1.47A4.94 4.94 0 0 0 0 4.94v8.98l19.92 20.73z"/><path fill="url(#logo-portrait-color-gradient-paint7_linear_56_1033)" d="M17.05 51.93h2.87V34.64L0 13.92V33.8z"/><path fill="url(#logo-portrait-color-gradient-paint8_linear_56_1033)" d="M0 47.14a4.8 4.8 0 0 0 4.79 4.78h12.26L0 33.81z"/></g><path fill="#111" d="M1.22 80.7C.55 80.7 0 80.13 0 79.46v-16.3c0-.68.55-1.23 1.22-1.23h6.55c3.89 0 6.38 2.3 6.38 5.87s-2.5 5.87-6.38 5.87H4.23v5.8c0 .67-.54 1.22-1.22 1.22zm3.01-11.87c0 .68.55 1.22 1.23 1.22h1.88c1.6 0 2.57-.85 2.57-2.25s-.96-2.25-2.57-2.25H5.46c-.68 0-1.23.55-1.23 1.23zM21 80.9c-4.18 0-7.12-2.94-7.12-6.96s2.94-6.97 7.12-6.97c4.13 0 7.13 2.95 7.13 6.97s-3 6.97-7.13 6.97m-3.21-6.96c0 2.14 1.28 3.62 3.21 3.62 1.9 0 3.2-1.48 3.2-3.62s-1.3-3.62-3.2-3.62c-1.93 0-3.21 1.48-3.21 3.62M34.1 80.9a6.2 6.2 0 0 1-5.53-2.98c-.34-.56-.02-1.25.6-1.49l.78-.3c.68-.27 1.43.15 1.9.73a2.8 2.8 0 0 0 2.25 1.07c1.05 0 1.74-.5 1.74-1.26 0-2.12-7.15-.7-7.15-5.81 0-2.12 1.85-3.89 4.82-3.89 2.26 0 4.2.9 5.16 2.3.36.52.05 1.18-.54 1.43l-.85.35c-.68.28-1.44-.14-1.99-.63a2.5 2.5 0 0 0-1.64-.63c-.89 0-1.5.37-1.5.96 0 2.14 7.26.38 7.26 5.84 0 2.33-2.15 4.32-5.3 4.32m14.6-1.31c.05.56-.3 1.1-.85 1.2q-.6.1-1.27.1c-2.92 0-5.14-1.55-5.14-4.82v-5.62h-.92c-.68 0-1.23-.55-1.23-1.23v-.82c0-.68.55-1.22 1.23-1.22h.92v-2.7c0-.67.54-1.22 1.22-1.22h1.49c.68 0 1.22.55 1.22 1.23v2.69h2.05c.68 0 1.22.54 1.22 1.22v.82c0 .68-.54 1.23-1.22 1.23h-2.05v5.11c0 1.2.65 1.9 1.61 1.9.75 0 1.6.51 1.65 1.25zm13.01-16.44c0-.68.55-1.23 1.22-1.23h1.81c.68 0 1.23.55 1.23 1.23v16.3c0 .68-.55 1.23-1.23 1.23h-1.8c-.69 0-1.23-.55-1.23-1.22v-5.4c0-.68-.55-1.23-1.23-1.23h-5c-.67 0-1.22.55-1.22 1.22v5.4c0 .68-.55 1.23-1.23 1.23h-1.78c-.68 0-1.23-.55-1.23-1.22V63.16c0-.68.55-1.23 1.23-1.23h1.78c.68 0 1.23.55 1.23 1.23V68c0 .67.55 1.22 1.22 1.22h5c.68 0 1.23-.55 1.23-1.22zM74.57 80.9c-4.18 0-7.13-2.94-7.13-6.96s2.95-6.97 7.13-6.97c4.13 0 7.13 2.95 7.13 6.97s-3 6.97-7.13 6.97m-3.22-6.96c0 2.14 1.3 3.62 3.22 3.62 1.9 0 3.19-1.48 3.19-3.62s-1.29-3.62-3.19-3.62c-1.93 0-3.22 1.48-3.22 3.62m17.15 6.31c-3.84 0-6.2-2.57-6.2-6.64s2.36-6.65 6.12-6.65c1.58 0 2.8.54 3.53 1.37 0-.64.52-1.15 1.15-1.15h1.51c.68 0 1.23.54 1.23 1.22v11.32c0 3.61-2.76 6.05-6.92 6.05-2.63 0-4.88-1.2-5.83-3.07-.31-.61.16-1.28.84-1.38l1.15-.18c.66-.1 1.28.4 1.77.84.5.46 1.26.71 2.07.71 1.85 0 3.06-1.04 3.06-2.55v-1.28c-.7.88-2.01 1.4-3.48 1.4m-2.36-6.64c0 2 1.18 3.3 3 3.3 1.85 0 3.03-1.3 3.03-3.3 0-2.01-1.18-3.3-3.03-3.3-1.82 0-3 1.29-3 3.3"/><defs><linearGradient id="logo-portrait-color-gradient-paint0_linear_56_1033" x1="40.73" x2="61.72" y1="17.83" y2="17.83" gradientUnits="userSpaceOnUse"><stop stop-color="#ffd849"/><stop offset=".96" stop-color="#fbae01"/></linearGradient><linearGradient id="logo-portrait-color-gradient-paint1_linear_56_1033" x1="40.73" x2="61.72" y1="33.04" y2="33.04" gradientUnits="userSpaceOnUse"><stop stop-color="#ffb700"/><stop offset="1" stop-color="#f9aa01"/></linearGradient><linearGradient id="logo-portrait-color-gradient-paint2_linear_56_1033" x1="40.73" x2="57.55" y1="43.29" y2="43.29" gradientUnits="userSpaceOnUse"><stop stop-color="#ff9500"/><stop offset="1" stop-color="#f8aa00"/></linearGradient><linearGradient id="logo-portrait-color-gradient-paint3_linear_56_1033" x1="19.92" x2="40.73" y1="17.32" y2="17.32" gradientUnits="userSpaceOnUse"><stop stop-color="#ff651e"/><stop offset="1" stop-color="#e4400a"/></linearGradient><linearGradient id="logo-portrait-color-gradient-paint4_linear_56_1033" x1="19.92" x2="36.54" y1="43.29" y2="43.29" gradientUnits="userSpaceOnUse"><stop stop-color="#c42c00"/><stop offset="1" stop-color="#d63600"/></linearGradient><linearGradient id="logo-portrait-color-gradient-paint5_linear_56_1033" x1="19.92" x2="40.73" y1="32.61" y2="32.61" gradientUnits="userSpaceOnUse"><stop stop-color="#ef3c00"/><stop offset="1" stop-color="#d63601"/></linearGradient><linearGradient id="logo-portrait-color-gradient-paint6_linear_56_1033" x1="0" x2="19.92" y1="17.32" y2="17.32" gradientUnits="userSpaceOnUse"><stop stop-color="#3f80ff"/><stop offset="1" stop-color="#084fe0"/></linearGradient><linearGradient id="logo-portrait-color-gradient-paint7_linear_56_1033" x1="0" x2="19.92" y1="32.92" y2="32.92" gradientUnits="userSpaceOnUse"><stop stop-color="#0255ff"/><stop offset="1" stop-color="#0145d2"/></linearGradient><linearGradient id="logo-portrait-color-gradient-paint8_linear_56_1033" x1="0" x2="17.05" y1="42.87" y2="42.87" gradientUnits="userSpaceOnUse"><stop stop-color="#0041c6"/><stop offset="1" stop-color="#0045d0"/></linearGradient><clipPath id="logo-portrait-color-gradient-clip0_56_1033"><path fill="#fff" d="M0 0h95.85v51.93H0z"/></clipPath></defs></svg>
